<svg width="124" height="38" viewBox="0 0 124 38" fill="none" xmlns="http://www.w3.org/2000/svg"><path d="M31.2897 17.4116C31.1067 16.1288 30.6188 15.7012 29.7649 15.7012C28.972 15.7012 28.301 16.3121 28.301 17.1062C28.301 18.1446 29.2159 18.6333 31.0457 19.4885C34.7664 21.1378 35.6813 22.6038 35.6813 24.9251C35.6813 28.3458 33.4855 30.3616 29.8259 30.3616C26.1663 30.3616 23.7875 28.3458 23.7875 24.5585V24.192H28.0571C28.0571 25.6581 28.789 26.6354 29.8259 26.6354C30.7408 26.6354 31.4117 25.9024 31.4117 24.9251C31.4117 23.5201 29.5209 22.9093 28.0571 22.2373C25.3123 21.0767 24.0925 19.5496 24.0925 17.2284C24.0925 14.2352 26.8372 12.0361 29.9479 12.0361C31.0457 12.0361 32.0216 12.2805 32.9365 12.7692C34.7054 13.7465 35.6203 15.1515 35.6203 17.5338H31.2897V17.4116Z" fill="white"/><path d="M46.0502 12.2812H50.3197V23.1544C50.3197 24.9869 50.0757 26.3919 49.4658 27.3692C48.3679 29.2629 46.4771 30.3624 43.9154 30.3624C42.5125 30.3624 41.2927 30.057 40.3168 29.4461C38.365 28.2244 37.3891 26.5751 37.3891 23.1544V12.2812H41.6586V23.0933C41.6586 25.2923 42.3296 26.3919 43.8544 26.3919C45.3182 26.3919 45.9892 25.5978 45.9892 23.1544V12.2812H46.0502Z" fill="white"/><path d="M52.3325 29.9959V12.2812H58.0049C59.7737 12.2812 61.1156 12.5256 62.0305 12.9532C63.8603 13.8695 64.9582 15.8853 64.9582 18.2676C64.9582 21.5662 63.2504 24.4372 58.4319 24.4372H56.4191V29.9959H52.3325ZM58.2489 20.4666C59.9567 20.4666 60.8106 19.8558 60.8106 18.3287C60.8106 16.8626 59.9567 16.2518 58.0659 16.2518H56.3581V20.4666H58.2489Z" fill="white"/><path d="M66.3 29.9344V12.2197H71.9725C73.7413 12.2197 75.0831 12.4641 75.998 12.8917C77.8278 13.8079 78.9257 15.8237 78.9257 18.2061C78.9257 21.5046 77.2179 24.3756 72.3994 24.3756H70.3866V29.9344H66.3ZM72.2774 20.4051C73.9852 20.4051 74.8392 19.7943 74.8392 18.2671C74.8392 16.8011 73.9852 16.1902 72.0944 16.1902H70.3866V20.4051H72.2774Z" fill="white"/><path d="M79.5356 21.5044C79.5356 16.0068 83.4392 11.9141 88.7457 11.9141C93.8691 11.9141 98.0167 15.8846 98.0167 21.0157C98.0167 26.269 93.9911 30.3006 88.9897 30.3006C84.1102 30.3006 79.5356 26.7577 79.5356 21.5044ZM93.5642 21.1379C93.5642 18.3891 91.6124 15.8846 88.8067 15.8846C86.001 15.8846 84.0492 18.2669 84.0492 21.0768C84.0492 24.0089 86.001 26.3301 88.8677 26.3301C91.6124 26.3301 93.5642 23.9478 93.5642 21.1379Z" fill="white"/><path d="M107.532 29.9959L103.628 24.2539H103.567V29.9959H99.4806V12.2812H104.97C106.739 12.2812 108.081 12.5256 108.935 12.9532C110.764 13.8084 112.045 15.8853 112.045 18.3897C112.045 21.1997 110.459 23.4598 107.898 23.9485L112.472 29.9959H107.532ZM105.214 21.1997C106.922 21.1997 107.959 20.3445 107.959 18.6341C107.959 17.107 106.861 16.2518 105.275 16.2518H103.628V21.1997H105.214Z" fill="white"/><path d="M116.437 29.9959V16.2518H113.143V12.2812H124.061V16.2518H120.767V29.9959H116.437Z" fill="white"/><path d="M0.914917 0.24707V12.2808C0.914917 12.2808 7.19726 18.8169 19.7009 21.3214C19.7009 14.2966 19.7009 8.06595 19.7009 8.06595C19.7009 8.06595 10.7349 7.51618 0.914917 0.24707Z" fill="white"/><path d="M0 16.6787V29.9341C0 29.9341 7.01427 29.2011 18.969 37.6919C18.969 32.5608 18.969 25.536 18.969 25.536C18.969 25.536 10.6129 18.4502 0 16.6787Z" fill="white"/></svg>